<svg width="873" height="108" viewBox="0 0 873 108" fill="none" xmlns="http://www.w3.org/2000/svg">
<path d="M5.31983 84C3.11983 84 2.01983 82.94 2.01983 80.82C2.01983 80.26 2.13983 79.74 2.37983 79.26C2.65983 78.74 3.03983 78.12 3.51983 77.4L53.0198 11.76V12.96H17.7998C14.3598 12.96 11.7198 13.64 9.87983 15C8.07983 16.32 6.97983 18.46 6.57983 21.42C6.45983 22.42 6.13983 23.18 5.61983 23.7C5.09983 24.22 4.31983 24.48 3.27983 24.48C2.27983 24.48 1.49983 24.2 0.939834 23.64C0.379834 23.04 0.139834 22.22 0.219834 21.18C0.739834 16.42 2.47983 12.82 5.43983 10.38C8.43983 7.90003 12.5598 6.66003 17.7998 6.66003H57.5198C59.6398 6.66003 60.6998 7.72003 60.6998 9.84003C60.6998 10.52 60.5998 11.14 60.3998 11.7C60.2398 12.22 59.8998 12.82 59.3798 13.5L9.93983 79.5V77.7H46.3598C49.8798 77.7 52.5398 77.04 54.3398 75.72C56.1398 74.4 57.2398 72.24 57.6398 69.24C57.7998 68.24 58.1398 67.48 58.6598 66.96C59.1798 66.44 59.9198 66.18 60.8798 66.18C61.9198 66.18 62.7198 66.48 63.2798 67.08C63.8798 67.64 64.1198 68.44 63.9998 69.48C62.9598 79.16 57.0798 84 46.3598 84H5.31983Z" fill="black"/>
<path d="M83.5795 84C81.4595 84 80.3995 82.94 80.3995 80.82V3.90003C80.3995 1.82003 81.4595 0.780029 83.5795 0.780029C85.6595 0.780029 86.6995 1.82003 86.6995 3.90003V36.18C90.4995 30.26 97.3795 27.3 107.34 27.3H110.7C118.18 27.3 123.64 29.04 127.08 32.52C130.56 35.96 132.3 41.42 132.3 48.9V80.82C132.3 82.94 131.26 84 129.18 84C127.06 84 126 82.94 126 80.82V48.9C126 43.18 124.86 39.2 122.58 36.96C120.34 34.72 116.38 33.6 110.7 33.6H107.34C101.14 33.6 96.2595 34.58 92.6995 36.54C89.1395 38.5 87.1395 41.56 86.6995 45.72V80.82C86.6995 82.94 85.6595 84 83.5795 84Z" fill="black"/>
<path d="M168.158 84C161.918 84 157.338 82.56 154.418 79.68C151.538 76.76 150.098 72.18 150.098 65.94C150.098 59.7 151.558 55.12 154.478 52.2C157.398 49.28 161.958 47.82 168.158 47.82H195.458C195.378 42.54 194.178 38.86 191.858 36.78C189.578 34.66 185.678 33.6 180.158 33.6H173.198C168.118 33.6 164.398 34.14 162.038 35.22C159.678 36.3 158.218 38.14 157.658 40.74C157.378 41.74 156.998 42.48 156.518 42.96C156.078 43.4 155.358 43.62 154.358 43.62C153.318 43.62 152.498 43.34 151.898 42.78C151.338 42.18 151.138 41.38 151.298 40.38C151.818 35.82 153.878 32.5 157.478 30.42C161.118 28.34 166.358 27.3 173.198 27.3H180.158C187.638 27.3 193.098 29.04 196.538 32.52C200.018 35.96 201.758 41.42 201.758 48.9V80.82C201.758 82.94 200.718 84 198.638 84C196.518 84 195.458 82.94 195.458 80.82V74.88C191.618 80.96 184.758 84 174.878 84H168.158ZM168.158 77.7H174.878C178.758 77.7 182.158 77.28 185.078 76.44C188.038 75.56 190.418 74.16 192.218 72.24C194.018 70.32 195.098 67.76 195.458 64.56V54.12H168.158C163.718 54.12 160.638 54.98 158.918 56.7C157.238 58.38 156.398 61.46 156.398 65.94C156.398 70.38 157.238 73.46 158.918 75.18C160.638 76.86 163.718 77.7 168.158 77.7Z" fill="black"/>
<path d="M235.554 83.88C230.634 83.88 226.874 82.84 224.274 80.76C221.674 78.64 220.114 75.42 219.594 71.1C219.474 70.06 219.694 69.26 220.254 68.7C220.814 68.1 221.634 67.8 222.714 67.8C223.714 67.8 224.454 68.06 224.934 68.58C225.454 69.1 225.794 69.88 225.954 70.92C226.314 73.4 227.214 75.14 228.654 76.14C230.134 77.1 232.434 77.58 235.554 77.58H255.234C258.954 77.58 261.514 76.88 262.914 75.48C264.314 74.08 265.014 71.52 265.014 67.8C265.014 64.04 264.314 61.46 262.914 60.06C261.514 58.66 258.954 57.96 255.234 57.96H235.794C230.594 57.96 226.714 56.72 224.154 54.24C221.634 51.72 220.374 47.86 220.374 42.66C220.374 37.34 221.634 33.44 224.154 30.96C226.674 28.44 230.554 27.18 235.794 27.18H254.634C263.674 27.18 268.694 31.18 269.694 39.18C269.854 40.22 269.634 41.04 269.034 41.64C268.474 42.2 267.674 42.48 266.634 42.48C265.634 42.48 264.874 42.22 264.354 41.7C263.874 41.18 263.534 40.42 263.334 39.42C263.054 37.18 262.234 35.64 260.874 34.8C259.554 33.92 257.474 33.48 254.634 33.48H235.794C232.314 33.48 229.914 34.12 228.594 35.4C227.314 36.68 226.674 39.1 226.674 42.66C226.674 46.06 227.334 48.42 228.654 49.74C229.974 51.02 232.354 51.66 235.794 51.66H255.234C260.754 51.66 264.814 52.98 267.414 55.62C270.014 58.22 271.314 62.28 271.314 67.8C271.314 73.28 270.014 77.34 267.414 79.98C264.814 82.58 260.754 83.88 255.234 83.88H235.554Z" fill="black"/>
<path d="M307.025 84C300.785 84 296.205 82.56 293.285 79.68C290.405 76.76 288.965 72.18 288.965 65.94C288.965 59.7 290.425 55.12 293.345 52.2C296.265 49.28 300.825 47.82 307.025 47.82H334.325C334.245 42.54 333.045 38.86 330.725 36.78C328.445 34.66 324.545 33.6 319.025 33.6H312.065C306.985 33.6 303.265 34.14 300.905 35.22C298.545 36.3 297.085 38.14 296.525 40.74C296.245 41.74 295.865 42.48 295.385 42.96C294.945 43.4 294.225 43.62 293.225 43.62C292.185 43.62 291.365 43.34 290.765 42.78C290.205 42.18 290.005 41.38 290.165 40.38C290.685 35.82 292.745 32.5 296.345 30.42C299.985 28.34 305.225 27.3 312.065 27.3H319.025C326.505 27.3 331.965 29.04 335.405 32.52C338.885 35.96 340.625 41.42 340.625 48.9V80.82C340.625 82.94 339.585 84 337.505 84C335.385 84 334.325 82.94 334.325 80.82V74.88C330.485 80.96 323.625 84 313.745 84H307.025ZM307.025 77.7H313.745C317.625 77.7 321.025 77.28 323.945 76.44C326.905 75.56 329.285 74.16 331.085 72.24C332.885 70.32 333.965 67.76 334.325 64.56V54.12H307.025C302.585 54.12 299.505 54.98 297.785 56.7C296.105 58.38 295.265 61.46 295.265 65.94C295.265 70.38 296.105 73.46 297.785 75.18C299.505 76.86 302.585 77.7 307.025 77.7Z" fill="black"/>
<path d="M385.401 84C376.721 84 370.381 82 366.381 78C362.381 74 360.381 67.66 360.381 58.98V31.68C360.381 22.92 362.361 16.56 366.321 12.6C370.321 8.64003 376.641 6.66003 385.281 6.66003H399.801C407.161 6.66003 412.641 8.20003 416.241 11.28C419.841 14.32 421.821 19.22 422.181 25.98C422.301 27.06 422.081 27.88 421.521 28.44C421.001 29 420.221 29.28 419.181 29.28C417.181 29.28 416.081 28.22 415.881 26.1C415.601 21.14 414.241 17.72 411.801 15.84C409.361 13.92 405.361 12.96 399.801 12.96H385.281C380.681 12.96 377.021 13.56 374.301 14.76C371.581 15.92 369.621 17.88 368.421 20.64C367.261 23.36 366.681 27.04 366.681 31.68V58.98C366.681 63.62 367.281 67.3 368.481 70.02C369.681 72.74 371.641 74.7 374.361 75.9C377.081 77.1 380.761 77.7 385.401 77.7H399.801C405.361 77.7 409.361 76.76 411.801 74.88C414.241 72.96 415.601 69.52 415.881 64.56C416.081 62.44 417.181 61.38 419.181 61.38C420.221 61.38 421.001 61.68 421.521 62.28C422.081 62.84 422.301 63.64 422.181 64.68C421.821 71.44 419.841 76.36 416.241 79.44C412.641 82.48 407.161 84 399.801 84H385.401Z" fill="black"/>
<path d="M457.041 84C449.561 84 444.081 82.28 440.601 78.84C437.121 75.36 435.381 69.9 435.381 62.46V48.9C435.381 41.34 437.121 35.84 440.601 32.4C444.081 28.92 449.561 27.22 457.041 27.3H466.881C474.361 27.3 479.821 29.04 483.261 32.52C486.741 35.96 488.481 41.42 488.481 48.9V62.34C488.481 69.82 486.741 75.3 483.261 78.78C479.821 82.26 474.361 84 466.881 84H457.041ZM441.681 62.46C441.681 68.1 442.801 72.06 445.041 74.34C447.321 76.58 451.321 77.7 457.041 77.7H466.881C472.601 77.7 476.581 76.58 478.821 74.34C481.061 72.06 482.181 68.06 482.181 62.34V48.9C482.181 43.18 481.061 39.2 478.821 36.96C476.581 34.72 472.601 33.6 466.881 33.6H457.041C453.201 33.56 450.161 34.02 447.921 34.98C445.681 35.94 444.081 37.54 443.121 39.78C442.161 42.02 441.681 45.06 441.681 48.9V62.46Z" fill="black"/>
<path d="M572.846 27.18C579.286 27.18 583.886 28.82 586.646 32.1C589.446 35.38 590.846 40.8 590.846 48.36V80.94C590.846 83.02 589.806 84.06 587.726 84.06C585.606 84.06 584.546 83.02 584.546 80.94V48.36C584.546 43.08 583.646 39.28 581.846 36.96C580.046 34.64 577.046 33.48 572.846 33.48H567.866C562.626 33.48 558.866 34.64 556.586 36.96C554.346 39.28 553.226 43.08 553.226 48.36V80.94C553.226 83.02 552.186 84.06 550.106 84.06C547.986 84.06 546.926 83.02 546.926 80.94V48.36C546.926 43.08 546.026 39.28 544.226 36.96C542.426 34.64 539.426 33.48 535.226 33.48H530.246C525.006 33.48 521.246 34.64 518.966 36.96C516.726 39.28 515.606 43.08 515.606 48.36V80.94C515.606 83.02 514.566 84.06 512.486 84.06C510.366 84.06 509.306 83.02 509.306 80.94V30.42C509.306 28.34 510.366 27.3 512.486 27.3C514.566 27.3 515.606 28.34 515.606 30.42V35.1C517.366 32.26 519.446 30.24 521.846 29.04C524.286 27.8 527.366 27.18 531.086 27.18H535.226C539.426 27.18 542.786 27.92 545.306 29.4C547.866 30.84 549.886 33.22 551.366 36.54C553.126 33.22 555.286 30.84 557.846 29.4C560.406 27.92 563.746 27.18 567.866 27.18H572.846Z" fill="black"/>
<path d="M615.376 108C613.256 108 612.196 106.94 612.196 104.82V30.42C612.196 28.34 613.256 27.3 615.376 27.3C617.456 27.3 618.496 28.34 618.496 30.42V35.76C620.296 32.96 622.876 30.86 626.236 29.46C629.596 28.02 633.896 27.3 639.136 27.3H643.696C651.176 27.3 656.636 29.04 660.076 32.52C663.556 35.96 665.296 41.42 665.296 48.9V62.34C665.296 69.82 663.556 75.3 660.076 78.78C656.636 82.26 651.176 84 643.696 84H618.496V104.82C618.496 106.94 617.456 108 615.376 108ZM618.496 77.7H643.696C649.416 77.7 653.396 76.58 655.636 74.34C657.876 72.06 658.996 68.06 658.996 62.34V48.9C658.996 43.18 657.876 39.2 655.636 36.96C653.396 34.72 649.416 33.6 643.696 33.6H639.136C632.736 33.6 627.816 34.6 624.376 36.6C620.976 38.6 619.016 41.68 618.496 45.84V77.7Z" fill="black"/>
<path d="M703.002 84C696.762 84 692.182 82.56 689.262 79.68C686.382 76.76 684.942 72.18 684.942 65.94C684.942 59.7 686.402 55.12 689.322 52.2C692.242 49.28 696.802 47.82 703.002 47.82H730.302C730.222 42.54 729.022 38.86 726.702 36.78C724.422 34.66 720.522 33.6 715.002 33.6H708.042C702.962 33.6 699.242 34.14 696.882 35.22C694.522 36.3 693.062 38.14 692.502 40.74C692.222 41.74 691.842 42.48 691.362 42.96C690.922 43.4 690.202 43.62 689.202 43.62C688.162 43.62 687.342 43.34 686.742 42.78C686.182 42.18 685.982 41.38 686.142 40.38C686.662 35.82 688.722 32.5 692.322 30.42C695.962 28.34 701.202 27.3 708.042 27.3H715.002C722.482 27.3 727.942 29.04 731.382 32.52C734.862 35.96 736.602 41.42 736.602 48.9V80.82C736.602 82.94 735.562 84 733.482 84C731.362 84 730.302 82.94 730.302 80.82V74.88C726.462 80.96 719.602 84 709.722 84H703.002ZM703.002 77.7H709.722C713.602 77.7 717.002 77.28 719.922 76.44C722.882 75.56 725.262 74.16 727.062 72.24C728.862 70.32 729.942 67.76 730.302 64.56V54.12H703.002C698.562 54.12 695.482 54.98 693.762 56.7C692.082 58.38 691.242 61.46 691.242 65.94C691.242 70.38 692.082 73.46 693.762 75.18C695.482 76.86 698.562 77.7 703.002 77.7Z" fill="black"/>
<path d="M761.158 84C759.038 84 757.978 82.94 757.978 80.82V30.42C757.978 28.34 759.038 27.3 761.158 27.3C763.238 27.3 764.278 28.34 764.278 30.42V36.18C768.078 30.26 774.958 27.3 784.918 27.3H788.278C795.758 27.3 801.218 29.04 804.658 32.52C808.138 35.96 809.878 41.42 809.878 48.9V80.82C809.878 82.94 808.838 84 806.758 84C804.638 84 803.578 82.94 803.578 80.82V48.9C803.578 43.18 802.438 39.2 800.158 36.96C797.918 34.72 793.958 33.6 788.278 33.6H784.918C778.718 33.6 773.838 34.58 770.278 36.54C766.718 38.5 764.718 41.56 764.278 45.72V80.82C764.278 82.94 763.238 84 761.158 84Z" fill="black"/>
<path d="M836.5 108C831.26 108 821.14 108 821.14 108H809.449H2.81967L2.81977 106L2.37983 101L819 101.7C819 101.7 833.02 101.7 836.5 101.7H857.26C860.78 101.7 863.18 101.06 864.46 99.78C865.74 98.5 866.38 96.06 866.38 92.46V75.96C864.1 78.96 861.24 81.06 857.8 82.26C854.36 83.46 850.34 84.06 845.74 84.06H842.38C835.02 84.06 829.64 82.36 826.24 78.96C822.84 75.56 821.14 70.22 821.14 62.94V30.36C821.14 28.24 822.18 27.18 824.26 27.18C826.38 27.18 827.44 28.24 827.44 30.36V62.94C827.44 68.5 828.52 72.36 830.68 74.52C832.88 76.68 836.78 77.76 842.38 77.76H845.74C852.74 77.76 857.92 76.54 861.28 74.1C864.68 71.62 866.38 67.9 866.38 62.94V30.36C866.38 28.24 867.42 27.18 869.5 27.18C871.62 27.18 872.68 28.24 872.68 30.36V92.46C872.68 97.78 871.42 101.7 868.9 104.22C866.42 106.74 862.54 108 857.26 108H836.5Z" fill="black"/>
</svg>
